<svg width="35" height="35" viewBox="0 0 35 35" fill="none" xmlns="http://www.w3.org/2000/svg">
<path d="M23.3333 32.0833H5.83334C4.22251 32.0833 2.91667 30.7775 2.91667 29.1667V11.6667H5.83334V29.1667H23.3333V32.0833ZM29.1667 26.25H11.6667C10.0558 26.25 8.75001 24.9442 8.75001 23.3333V5.83334C8.75001 4.22251 10.0558 2.91667 11.6667 2.91667H29.1667C30.7775 2.91667 32.0833 4.22251 32.0833 5.83334V23.3333C32.0833 24.9442 30.7775 26.25 29.1667 26.25ZM11.6667 5.83334V23.3333H29.1667V5.83334H11.6667ZM21.875 20.4167H18.9583V16.0417H14.5833V13.125H18.9583V8.75001H21.875V13.125H26.25V16.0417H21.875V20.4167Z" fill="#2E3A59"/>
</svg>
