<svg width="18" height="21" viewBox="0 0 18 21" fill="none" xmlns="http://www.w3.org/2000/svg">
<path d="M16 20.6168H2C0.89543 20.6168 0 19.6963 0 18.5607V4.16823C0 3.03269 0.89543 2.11215 2 2.11215H4V0.056076H6V2.11215H12V0.056076H14V2.11215H16C17.1046 2.11215 18 3.03269 18 4.16823V18.5607C18 19.6963 17.1046 20.6168 16 20.6168ZM2 8.28038V18.5607H16V8.28038H2ZM2 4.16823V6.2243H16V4.16823H2ZM14 16.5047H12V14.4486H14V16.5047ZM10 16.5047H8V14.4486H10V16.5047ZM6 16.5047H4V14.4486H6V16.5047ZM14 12.3925H12V10.3365H14V12.3925ZM10 12.3925H8V10.3365H10V12.3925ZM6 12.3925H4V10.3365H6V12.3925Z" fill="#2E3A59"/>
</svg>
