<svg width="20" height="18" viewBox="0 0 20 18" fill="none" xmlns="http://www.w3.org/2000/svg">
<path d="M4.62 10.08C4.4959 10.1249 4.3832 10.1966 4.28989 10.2899C4.19657 10.3832 4.12491 10.4959 4.08 10.62C4.00726 10.8017 3.98945 11.0008 4.02879 11.1926C4.06812 11.3843 4.16287 11.5603 4.30128 11.6987C4.43969 11.8371 4.61569 11.9319 4.80744 11.9712C4.99919 12.0105 5.19827 11.9927 5.38 11.92C5.50118 11.8694 5.6128 11.7983 5.71 11.71C5.79833 11.6128 5.86936 11.5012 5.92 11.38C5.97598 11.2613 6.00338 11.1312 6 11C5.99632 10.7352 5.89273 10.4816 5.71 10.29C5.56938 10.1512 5.3908 10.0572 5.19681 10.0199C5.00282 9.9825 4.80211 10.0034 4.62 10.08ZM17.76 6.08L16.4 2.05C16.1926 1.46323 15.8077 0.955502 15.2989 0.59716C14.7901 0.238817 14.1824 0.0475994 13.56 0.0499987H6.44C5.81764 0.0475994 5.20995 0.238817 4.7011 0.59716C4.19225 0.955502 3.80745 1.46323 3.6 2.05L2.24 6.11C1.60033 6.27751 1.03392 6.65166 0.628829 7.1743C0.223743 7.69693 0.00267662 8.33876 0 9V13C0.00173951 13.6189 0.194879 14.2222 0.552938 14.7271C0.910998 15.2319 1.41645 15.6137 2 15.82V17C2 17.2652 2.10536 17.5196 2.29289 17.7071C2.48043 17.8946 2.73478 18 3 18C3.26522 18 3.51957 17.8946 3.70711 17.7071C3.89464 17.5196 4 17.2652 4 17V16H16V17C16 17.2652 16.1054 17.5196 16.2929 17.7071C16.4804 17.8946 16.7348 18 17 18C17.2652 18 17.5196 17.8946 17.7071 17.7071C17.8946 17.5196 18 17.2652 18 17V15.82C18.5835 15.6137 19.089 15.2319 19.4471 14.7271C19.8051 14.2222 19.9983 13.6189 20 13V9C19.9973 8.33876 19.7763 7.69693 19.3712 7.1743C18.9661 6.65166 18.3997 6.27751 17.76 6.11V6.08ZM5.49 2.68C5.55709 2.48138 5.6849 2.30886 5.85537 2.18684C6.02584 2.06482 6.23036 1.99946 6.44 2H13.56C13.7781 1.98862 13.9939 2.04893 14.1744 2.17171C14.355 2.2945 14.4904 2.47302 14.56 2.68L15.61 6H4.39L5.49 2.68ZM18 13C18 13.2652 17.8946 13.5196 17.7071 13.7071C17.5196 13.8946 17.2652 14 17 14H3C2.73478 14 2.48043 13.8946 2.29289 13.7071C2.10536 13.5196 2 13.2652 2 13V9C2 8.73478 2.10536 8.48043 2.29289 8.29289C2.48043 8.10536 2.73478 8 3 8H17C17.2652 8 17.5196 8.10536 17.7071 8.29289C17.8946 8.48043 18 8.73478 18 9V13ZM14.62 10.08C14.4959 10.1249 14.3832 10.1966 14.2899 10.2899C14.1966 10.3832 14.1249 10.4959 14.08 10.62C14.0073 10.8017 13.9895 11.0008 14.0288 11.1926C14.0681 11.3843 14.1629 11.5603 14.3013 11.6987C14.4397 11.8371 14.6157 11.9319 14.8074 11.9712C14.9992 12.0105 15.1983 11.9927 15.38 11.92C15.5041 11.8751 15.6168 11.8034 15.7101 11.7101C15.8034 11.6168 15.8751 11.5041 15.92 11.38C15.976 11.2613 16.0034 11.1312 16 11C15.9963 10.7352 15.8927 10.4816 15.71 10.29C15.5694 10.1512 15.3908 10.0572 15.1968 10.0199C15.0028 9.9825 14.8021 10.0034 14.62 10.08ZM11 10H9C8.73478 10 8.48043 10.1054 8.29289 10.2929C8.10536 10.4804 8 10.7348 8 11C8 11.2652 8.10536 11.5196 8.29289 11.7071C8.48043 11.8946 8.73478 12 9 12H11C11.2652 12 11.5196 11.8946 11.7071 11.7071C11.8946 11.5196 12 11.2652 12 11C12 10.7348 11.8946 10.4804 11.7071 10.2929C11.5196 10.1054 11.2652 10 11 10Z" fill="#2E3A59"/>
</svg>
