<svg width="35" height="35" viewBox="0 0 35 35" fill="none" xmlns="http://www.w3.org/2000/svg">
<path d="M20.1542 32.0833H14.8459C14.1606 32.0833 13.5677 31.6065 13.4211 30.9371L12.8275 28.1896C12.0357 27.8427 11.2849 27.4088 10.589 26.8961L7.91002 27.7492C7.25669 27.9575 6.54646 27.6825 6.20377 27.0886L3.54377 22.4933C3.20484 21.8991 3.32161 21.1495 3.82523 20.6865L5.90335 18.7906C5.80885 17.9318 5.80885 17.0653 5.90335 16.2065L3.82523 14.315C3.32086 13.8518 3.20405 13.1013 3.54377 12.5067L6.19794 7.90855C6.54063 7.31457 7.25085 7.03958 7.90419 7.24792L10.5831 8.10105C10.9391 7.83732 11.3096 7.59387 11.6929 7.37188C12.0609 7.16435 12.4397 6.97645 12.8275 6.80896L13.4225 4.06438C13.5685 3.39496 14.1607 2.91739 14.8459 2.91667H20.1542C20.8393 2.91739 21.4316 3.39496 21.5775 4.06438L22.1784 6.81042C22.5878 6.99055 22.9866 7.19408 23.3727 7.42001C23.7333 7.62822 24.0819 7.85657 24.4169 8.10396L27.0973 7.25084C27.7502 7.04327 28.4596 7.31815 28.8021 7.91146L31.4563 12.5096C31.7952 13.1038 31.6784 13.8535 31.1748 14.3165L29.0967 16.2123C29.1912 17.0711 29.1912 17.9377 29.0967 18.7965L31.1748 20.6923C31.6784 21.1553 31.7952 21.9049 31.4563 22.4992L28.8021 27.0973C28.4596 27.6906 27.7502 27.9655 27.0973 27.7579L24.4169 26.9048C24.0777 27.1546 23.7253 27.3858 23.3611 27.5975C22.9787 27.819 22.5844 28.0191 22.1798 28.1969L21.5775 30.9371C21.431 31.6059 20.8389 32.0828 20.1542 32.0833ZM17.4942 11.6667C14.2725 11.6667 11.6609 14.2783 11.6609 17.5C11.6609 20.7217 14.2725 23.3333 17.4942 23.3333C20.7158 23.3333 23.3275 20.7217 23.3275 17.5C23.3275 14.2783 20.7158 11.6667 17.4942 11.6667Z" fill="#2E3A59"/>
</svg>
