<svg width="18" height="19" viewBox="0 0 18 19" fill="none" xmlns="http://www.w3.org/2000/svg">
<path d="M10.3266 17.7003C10.6372 17.5424 10.8333 17.2197 10.8333 16.8666V11.8527C10.8333 11.6055 10.9299 11.3684 11.1018 11.1936L16.7128 5.48782C17.0566 5.13827 17.25 4.66381 17.25 4.16884V1.75925C17.25 1.24377 16.8403 0.827103 16.3333 0.827103H1.66667C1.15975 0.827103 0.75 1.24377 0.75 1.75925V4.16884C0.75 4.66381 0.943417 5.13827 1.28717 5.48782L6.89818 11.1936C7.07009 11.3684 7.16667 11.6055 7.16667 11.8527V17.7987C7.16667 18.4917 7.88379 18.9424 8.49328 18.6325L10.3266 17.7003Z" fill="#2E3A59"/>
</svg>
