<svg width="16" height="18" viewBox="0 0 16 18" fill="none" xmlns="http://www.w3.org/2000/svg">
<path d="M12.1667 17.3333H3.83333C2.91286 17.3333 2.16667 16.5871 2.16667 15.6667V4.83334H0.5V3.16667H3.83333V2.33334C3.83333 1.41286 4.57953 0.666672 5.5 0.666672H10.5C11.4205 0.666672 12.1667 1.41286 12.1667 2.33334V3.16667H15.5V4.83334H13.8333V15.6667C13.8333 16.5871 13.0871 17.3333 12.1667 17.3333ZM3.83333 4.83334V15.6667H12.1667V4.83334H3.83333ZM5.5 2.33334V3.16667H10.5V2.33334H5.5ZM10.5 14H8.83333V6.50001H10.5V14ZM7.16667 14H5.5V6.50001H7.16667V14Z" fill="#2E3A59"/>
</svg>
